<?xml version="1.0" encoding="UTF-8"?>
<svg id="svg" version="1.1" xmlns="http://www.w3.org/2000/svg" xmlns:xlink="http://www.w3.org/1999/xlink" width="400" height="400" viewBox="0, 0, 400,400">
  <g id="svgg">
    <path id="path0" d="M187.604 13.385 C 160.895 14.737,135.810 21.313,110.448 33.613 C 94.348 41.421,90.663 46.450,94.956 54.753 C 97.051 58.807,149.095 148.461,151.038 151.364 C 154.861 157.077,160.568 157.612,170.241 153.162 C 189.317 144.387,209.599 144.381,228.005 153.145 C 242.899 160.238,240.815 162.382,273.222 106.624 C 305.280 51.465,304.923 52.141,304.240 47.864 C 302.080 34.357,251.294 15.325,212.891 13.632 C 207.734 13.405,202.461 13.128,201.172 13.018 C 199.883 12.907,193.777 13.073,187.604 13.385 M187.109 169.427 C 155.006 178.652,144.421 219.953,168.094 243.625 C 195.960 271.491,243.750 251.584,243.750 212.109 C 243.750 182.530,215.526 161.261,187.109 169.427 M5.564 202.117 C 0.323 204.699,-0.169 206.505,0.281 221.484 C 2.131 282.934,35.610 342.885,87.674 377.974 C 101.054 386.992,105.395 388.413,110.884 385.574 C 113.856 384.038,111.525 387.825,144.491 330.982 C 177.498 274.067,176.775 276.354,164.475 267.803 C 145.435 254.565,135.738 238.339,133.579 216.102 C 132.721 207.266,131.334 204.176,127.317 202.150 C 123.260 200.103,9.713 200.073,5.564 202.117 M271.931 202.150 C 267.420 204.450,266.223 206.871,265.576 215.004 C 263.819 237.080,252.824 256.263,235.494 267.489 C 224.632 274.525,224.587 277.831,235.098 296.094 C 294.351 399.039,288.965 392.562,306.218 381.624 C 362.658 345.838,399.322 282.631,399.561 220.703 C 399.615 206.711,398.926 204.647,393.312 201.983 C 389.195 200.030,275.783 200.185,271.931 202.150 " stroke="none" fill="#000000" fill-rule="evenodd"/>
  </g>
</svg>